<svg id="TUNER_BL" xmlns="http://www.w3.org/2000/svg" viewBox="0 0 20 20"><title>tuner-bl</title><path d="M1.57,3.68H2.79a3,3,0,0,0,5.87,0h9.77a.6.6,0,0,0,0-1.2H8.66a3,3,0,0,0-5.87,0H1.57a.6.6,0,1,0,0,1.2ZM5.72,1.26a1.82,1.82,0,1,1-1.8,1.82A1.82,1.82,0,0,1,5.72,1.26Z"/><path d="M18.43,9.4H17.3a3,3,0,0,0-5.87,0H1.57a.6.6,0,0,0,0,1.2h9.86a3,3,0,0,0,5.87,0h1.13a.6.6,0,0,0,0-1.2Zm-4.07,2.41A1.81,1.81,0,1,1,16.16,10,1.81,1.81,0,0,1,14.36,11.81Z"/><path d="M18.43,16.32H10.52A3,3,0,0,0,7.6,13.91a3,3,0,0,0-2.94,2.41H1.57a.6.6,0,1,0,0,1.2H4.66a3,3,0,0,0,5.88,0h7.89a.6.6,0,0,0,0-1.2ZM7.6,18.74a1.82,1.82,0,0,1,0-3.63,1.79,1.79,0,0,1,1.22.48,1.85,1.85,0,0,1,.58,1.18h0v.15A1.82,1.82,0,0,1,7.6,18.74Z"/></svg>