<svg id="CATALOGUE" xmlns="http://www.w3.org/2000/svg" viewBox="0 0 20 20"><defs><style>.cls-1{fill:#ccc;}</style></defs><title>catalogue</title><path class="cls-1" d="M15.76,1a1,1,0,0,0-.24-.14L13,0a1.63,1.63,0,0,1,.09.49c0,1.16-1.24,2.1-2.76,2.1H9.62c-1.52,0-2.75-.94-2.75-2.1A1.62,1.62,0,0,1,7,0L4.45.86A.72.72,0,0,0,4.21,1L.26,4.44a.73.73,0,0,0-.08,1L2.55,8.28a.72.72,0,0,0,1,.08l.74-.64V19a.72.72,0,0,0,.55.71A25.67,25.67,0,0,0,10,20a24.44,24.44,0,0,0,5.1-.33.73.73,0,0,0,.57-.71V7.72l.74.64a.72.72,0,0,0,1-.08l2.37-2.82a.74.74,0,0,0-.08-1Z"/></svg>