<svg id="TUNER_2_WH" xmlns="http://www.w3.org/2000/svg" viewBox="0 0 20 20"><defs><style>.cls-1{fill:#fff;}</style></defs><title>tuner</title><path class="cls-1" d="M19.42,5.24H9.93a3.56,3.56,0,0,0-7,0H.58A.62.62,0,0,0,0,5.89a.62.62,0,0,0,.58.65H2.93a3.56,3.56,0,0,0,7,0h9.49A.62.62,0,0,0,20,5.89.62.62,0,0,0,19.42,5.24Zm-13,3A2.38,2.38,0,1,1,8.81,5.89,2.38,2.38,0,0,1,6.43,8.27Z"/><path class="cls-1" d="M0,14.11a.62.62,0,0,0,.58.65h9.49a3.56,3.56,0,0,0,7,0h2.35a.65.65,0,0,0,0-1.3H17.07a3.56,3.56,0,0,0-7,0H.58A.62.62,0,0,0,0,14.11Zm11.19,0a2.38,2.38,0,1,1,2.38,2.38A2.37,2.37,0,0,1,11.19,14.11Z"/></svg>