<svg id="TUNER_BL" xmlns="http://www.w3.org/2000/svg" viewBox="0 0 20 20"><title>tuner-bl</title><path d="M1.43,3.57H2.67a3,3,0,0,0,6,0h9.93a.61.61,0,0,0,0-1.21H8.64a3,3,0,0,0-6,0H1.44a.61.61,0,0,0,0,1.21ZM5.65,1.13A1.83,1.83,0,1,1,3.82,3,1.84,1.84,0,0,1,5.65,1.13Z"/><path d="M18.56,9.35H17.41a3,3,0,0,0-6,0h-10A.61.61,0,0,0,.83,10a.61.61,0,0,0,.61.61h10a3,3,0,0,0,6,0h1.15a.61.61,0,0,0,.61-.61A.61.61,0,0,0,18.56,9.35Zm-4.13,2.44A1.83,1.83,0,1,1,16.26,10,1.83,1.83,0,0,1,14.43,11.79Z"/><path d="M18.56,16.35h-8a3,3,0,0,0-.9-1.63,3,3,0,0,0-5.05,1.63H1.44a.61.61,0,1,0,0,1.21H4.58a3,3,0,0,0,6,0h8a.61.61,0,1,0,0-1.21Zm-11,2.44a1.83,1.83,0,1,1,1.83-2h0V17A1.83,1.83,0,0,1,7.56,18.79Z"/></svg>