<svg id="PHONE_BL" xmlns="http://www.w3.org/2000/svg" viewBox="0 0 20 20"><title>phone</title><path d="M3.12,1.14a.4.4,0,0,1,.29.12L6.5,4.35a.41.41,0,0,1,.11.29A.51.51,0,0,1,6.46,5l-.52.51h0l-1,1-.62.61.43.76.14.24,0,.05h0C5.15,8.72,5.5,9.34,6,10a14.77,14.77,0,0,0,1.82,2.2A14.77,14.77,0,0,0,10,14c.68.46,1.3.8,1.79,1.08l.31.17.76.42.6-.61L15,13.55a.52.52,0,0,1,.37-.16.42.42,0,0,1,.29.11l3.08,3.09a.42.42,0,0,1,.12.3.51.51,0,0,1-.16.35L18,17.9l-.13.1a4.07,4.07,0,0,1-1,.55h0a3.89,3.89,0,0,1-1,.25h-.25a7.07,7.07,0,0,1-1.23-.12,10.75,10.75,0,0,1-2.1-.62,14.78,14.78,0,0,1-2.81-1.5A21.45,21.45,0,0,1,6.2,13.79a30.59,30.59,0,0,1-2.56-2.85A14.37,14.37,0,0,1,2,8.46,7.43,7.43,0,0,1,1.2,4.08h0a4.19,4.19,0,0,1,.25-1A3.54,3.54,0,0,1,2,2.1l.13-.18.63-.62a.48.48,0,0,1,.36-.16h0M3.12,0A1.63,1.63,0,0,0,2,.49l-.87.88,0,0A4.93,4.93,0,0,0,.38,2.66,5.22,5.22,0,0,0,.06,3.94C-.34,7.32,1.2,10.41,5.39,14.6c5,5,9.07,5.35,10.3,5.35h.37a5.41,5.41,0,0,0,1.29-.32,5,5,0,0,0,1.26-.72l0,0,.88-.86a1.61,1.61,0,0,0,0-2.28l-3.09-3.09a1.56,1.56,0,0,0-1.09-.44,1.65,1.65,0,0,0-1.18.49l-1.55,1.55-.31-.17a15.23,15.23,0,0,1-3.74-2.71A15.6,15.6,0,0,1,5.87,7.67c0-.11-.11-.21-.16-.3l1-1,.51-.51a1.61,1.61,0,0,0,0-2.27L4.22.45A1.55,1.55,0,0,0,3.12,0Z"/></svg>