<svg id="PROFILE_BL" xmlns="http://www.w3.org/2000/svg" viewBox="0 0 20 20"><title>profile</title><path d="M18,20a.56.56,0,0,1-.56-.56V18.34A2.56,2.56,0,0,0,16,16L12.7,14.37a1.49,1.49,0,0,1-.82-1.32V11.67l.13-.15c.07-.09.15-.19.22-.3a7.1,7.1,0,0,0,1-1.88l.08-.23.22-.1A.8.8,0,0,0,14,8.26V6.87a.81.81,0,0,0-.21-.55l-.14-.16V4A2.62,2.62,0,0,0,13,2.19a3.85,3.85,0,0,0-3-1,3.85,3.85,0,0,0-3,1A2.62,2.62,0,0,0,6.37,4V6.16l-.14.16A.81.81,0,0,0,6,6.87V8.26a.83.83,0,0,0,.31.65L6.49,9l0,.18a6.71,6.71,0,0,0,1.13,2.31l.11.15V13A1.49,1.49,0,0,1,7,14.31L3.89,16a2.6,2.6,0,0,0-1.34,2.27V19.4A.56.56,0,0,1,2,20a.55.55,0,0,1-.55-.56V18.27A3.68,3.68,0,0,1,3.36,15l3.11-1.7A.35.35,0,0,0,6.66,13V12A7.83,7.83,0,0,1,5.5,9.64a1.91,1.91,0,0,1-.58-1.38V6.87a1.92,1.92,0,0,1,.35-1.11V4.13a3.7,3.7,0,0,1,.86-2.67A4.92,4.92,0,0,1,10,0a4.92,4.92,0,0,1,3.87,1.42,3.7,3.7,0,0,1,.86,2.67V5.76a1.92,1.92,0,0,1,.35,1.11V8.26a2,2,0,0,1-.31,1.05,1.88,1.88,0,0,1-.6.59,8.51,8.51,0,0,1-1,2l-.15.2v1a.36.36,0,0,0,.2.32L16.52,15a3.66,3.66,0,0,1,2,3.3V19.4A.55.55,0,0,1,18,20Z"/></svg>