<svg id="Слой_16" data-name="Слой 16" xmlns="http://www.w3.org/2000/svg" viewBox="0 0 1451.34 1451.34"><defs><style>.cls-1{fill:#fff;}.cls-1,.cls-2,.cls-3{stroke:#1d1d1b;stroke-miterlimit:10;stroke-width:60px;}.cls-1,.cls-3{stroke-linecap:round;}.cls-2{fill:#1d1d1b;}.cls-3{fill:none;}</style></defs><title>picker-bl</title><line class="cls-1" x1="710.06" y1="422.61" x2="1032.57" y2="745.13"/><path class="cls-2" d="M1097.81-15.51h43.55a65,65,0,0,1,65,65V686.71a0,0,0,0,1,0,0H1032.8a0,0,0,0,1,0,0V49.5a65,65,0,0,1,65-65Z" transform="translate(565.22 -693.37) rotate(45)"/><path class="cls-3" d="M221,1342.47l-93.19,34.1c-30.66,11.22-60.42-18.55-49.21-49.21l34.1-93.18a109.81,109.81,0,0,1,25.49-39.93L810,522.5,932.68,645.24,260.93,1317A109.88,109.88,0,0,1,221,1342.47Z"/></svg>