<svg id="Слой_3" data-name="Слой 3" xmlns="http://www.w3.org/2000/svg" viewBox="0 0 1451.34 1451.34"><defs><style>.cls-1{fill:#231f20;}.cls-2{fill:none;stroke:#231f20;stroke-linecap:round;stroke-linejoin:round;stroke-width:60px;}</style></defs><title>comments</title><path class="cls-1" d="M725.67,151.64c357.21,0,647.82,235.09,647.82,524.06s-290.61,524.06-647.82,524.06a785.69,785.69,0,0,1-202.83-26.28,68.1,68.1,0,0,0-17.57-2.29h0c-36,0-65.24,26.12-113.62,69.39-22.84,20.42-54.11,48.39-70.75,57a17.81,17.81,0,0,1-8.32,2.13,19.12,19.12,0,0,1-12.94-5.31,17.78,17.78,0,0,1-5.65-13c-.29-13.5,4.15-44.44,7.72-69.3,3.36-23.41,6.84-47.61,8.3-67.69,1-13.27,1-23.71.13-32.86-2.26-23.59-11.55-41.73-27.6-53.93a583.34,583.34,0,0,1-86.06-80,509.66,509.66,0,0,1-64.35-92c-36-66.32-54.26-136.94-54.26-209.91,0-289,290.61-524.06,647.82-524.06m0-60C334.75,91.64,17.85,353.13,17.85,675.7c0,169.94,88,322.93,228.37,429.66C261.54,1117,233,1236.67,234,1282.69c1,44.85,38,77,78.57,77a77.81,77.81,0,0,0,35.86-8.82c49.14-25.38,131.79-119.69,156.84-119.69a8.07,8.07,0,0,1,2.08.25,845.59,845.59,0,0,0,218.34,28.32c390.92,0,707.82-261.49,707.82-584.06S1116.59,91.64,725.67,91.64Z"/><path class="cls-2" d="M366.66,563.53h718"/><path class="cls-2" d="M480.84,825H970.5"/></svg>