<svg id="CATALOGUE" xmlns="http://www.w3.org/2000/svg" viewBox="0 0 24 24"><defs><style>.cls-1{fill:#ccc;}</style></defs><title>ctalogue</title><path class="cls-1" d="M18.94,2.74a1,1,0,0,0-.28-.17l-3-1a1.92,1.92,0,0,1,.1.59c0,1.4-1.49,2.53-3.31,2.53h-.88c-1.82,0-3.31-1.13-3.31-2.53a1.92,1.92,0,0,1,.1-.59l-3,1a1,1,0,0,0-.28.17L.3,6.88A.88.88,0,0,0,.2,8.1l2.86,3.4a.86.86,0,0,0,1.23.09l.89-.77v11a.87.87,0,0,0,.67.85,30,30,0,0,0,6.15.39,29.66,29.66,0,0,0,6.14-.4.87.87,0,0,0,.68-.85v-11l.89.77a.86.86,0,0,0,1.23-.09L23.8,8.1a.88.88,0,0,0-.1-1.22Z"/></svg>