<svg id="PHONE_BL" xmlns="http://www.w3.org/2000/svg" viewBox="0 0 20 20"><title>phone-bl</title><path d="M3.13.86a.68.68,0,0,1,.49.2L6.71,4.15a.74.74,0,0,1,0,1.06l-.51.52-1,1-.46.47L5,7.81l.14.24,0,0h0c.27.49.62,1.1,1.07,1.77A15,15,0,0,0,8,12.05a14.88,14.88,0,0,0,2.16,1.79c.67.45,1.29.79,1.78,1.06l.31.18.57.31.45-.46,1.56-1.56a.84.84,0,0,1,.57-.24.66.66,0,0,1,.49.2l3.1,3.1a.7.7,0,0,1,.2.5.84.84,0,0,1-.24.56l-.68.67-.15.11a4.24,4.24,0,0,1-1,.59,4.17,4.17,0,0,1-1.08.27h-.27c-1.08,0-5-.37-9.72-5.11a32.68,32.68,0,0,1-2.59-2.89A15.73,15.73,0,0,1,1.77,8.6,7.71,7.71,0,0,1,.92,4.05h0A4.39,4.39,0,0,1,1.18,3a4.49,4.49,0,0,1,.6-1.05l.14-.18.64-.64A.78.78,0,0,1,3.13.86h0m0-.86A1.67,1.67,0,0,0,2,.49l-.87.88,0,0A5.64,5.64,0,0,0,.38,2.66,5.66,5.66,0,0,0,.06,4C-.35,7.34,1.2,10.43,5.41,14.64,10.36,19.59,14.49,20,15.73,20a2,2,0,0,0,.37,0,5,5,0,0,0,1.29-.32,4.74,4.74,0,0,0,1.26-.72l0,0,.88-.86a1.62,1.62,0,0,0,.05-2.28l-3.1-3.1a1.55,1.55,0,0,0-1.1-.45,1.68,1.68,0,0,0-1.18.5l-1.56,1.56-.3-.18a15.07,15.07,0,0,1-3.75-2.71A15.09,15.09,0,0,1,5.89,7.68c-.06-.1-.12-.2-.17-.3l1-1,.51-.52a1.6,1.6,0,0,0,0-2.27L4.23.45A1.55,1.55,0,0,0,3.13,0Z"/></svg>