<svg id="PICKER_BL" xmlns="http://www.w3.org/2000/svg" viewBox="0 0 20 20"><title>picker-bl</title><path d="M19.59,4.31a1.43,1.43,0,0,0,.41-1,1.46,1.46,0,0,0-.41-1L17.67.39a1.42,1.42,0,0,0-2,0L10,6.1l-.37.37-.81-.81A.54.54,0,0,0,8,6.43l.81.81L.49,15.56a1.51,1.51,0,0,0-.41,1L0,18.16a1.76,1.76,0,0,0,.58,1.26,2.13,2.13,0,0,0,.55.41,1.43,1.43,0,0,0,.64.17h.07l1.62-.1a1.47,1.47,0,0,0,1-.42l8.33-8.32.81.8a.53.53,0,0,0,.76,0,.54.54,0,0,0,0-.76l-.8-.81.37-.37Zm-.7-.94V3.24a.15.15,0,0,1,0,.07S18.9,3.35,18.89,3.37ZM16.73,1.08h0ZM3.65,18.72a.48.48,0,0,1-.28.1l-1.62.1a.89.89,0,0,1-.43-.26.89.89,0,0,1-.26-.43l.1-1.62a.42.42,0,0,1,.1-.28L9.59,8,12,10.39Z"/></svg>